<?xml version="1.0" encoding="UTF-8" standalone="no"?>
<svg width="861px" height="686px" viewBox="0 0 861 686" version="1.1" xmlns="http://www.w3.org/2000/svg" xmlns:xlink="http://www.w3.org/1999/xlink">
    <!-- Generator: Sketch 41.1 (35376) - http://www.bohemiancoding.com/sketch -->
    <title>Box</title>
    <desc>Created with Sketch.</desc>
    <defs></defs>
    <g id="Page-1" stroke="none" stroke-width="1" fill="none" fill-rule="evenodd">
        <g id="Box">
            <path d="M550.723401,359.9955 L533.040398,348.90081 L533.040398,311.824474 L580.966012,341.27934 L587.83686,337.027197 L536.087939,305.621779 L588.523643,274.455004 L638.863272,305.448625 L644.706685,301.832328 L588.456138,266.21257 L576.145578,273.56551 L558.080025,262.705484 L558.080025,246.226922 L431.812444,169.107364 L367.430213,206.971907 L335.439075,187.462864 L269.735405,227.103546 L269.735405,274.066287 L245.094987,258.923505 L195.802774,288.655903 L202.382783,292.800863 L245.279138,267.216317 L362.094884,338.009352 L316.704455,364.815776 L324.196947,369.535539 L364.790723,344.494701 L364.940643,381.537199 L354.3294,388.516943 L360.672805,392.512859 L387.561057,376.120812 L456.476713,418.321683 L463.065104,414.244344 L390.795478,369.946971 L390.795478,355.087067 L475.312148,406.66505 L482.005522,402.522741 L393.815789,348.745801 L457.205126,310.980552 L544.071045,364.112425 L550.723401,359.9955 Z M277.279123,278.438064 L277.279123,234.617264 L401.771089,309.86048 L401.771089,335.953343 L383.630765,346.678628 L383.63077,370.393271 L371.974568,377.323679 L371.974568,335.95334 L277.279123,278.438064 L277.279123,278.438064 Z M280.281402,228.337879 L334.991231,195.637234 L459.878489,271.415432 L405.273082,303.894577 L280.281402,228.337879 L280.281402,228.337879 Z M380.199124,207.90214 L431.315524,177.510888 L547.950331,248.31629 L497.335695,278.673688 L380.199124,207.90214 L380.199124,207.90214 Z M500.918626,284.744745 L500.918626,297.335396 L550.887365,267.608213 L550.887365,254.856067 L500.918626,284.744745 L500.918626,284.744745 Z M495.37189,308.700099 L558.382093,271.041492 L569.369894,277.742556 L525.894996,303.387796 L525.894995,327.180547 L495.37189,308.700099 L495.37189,308.700099 Z M492.186823,314.936862 L492.186823,324.100121 L525.968572,344.484672 L525.968572,335.277254 L492.186823,314.936862 L492.186823,314.936862 Z M469.673858,270.166297 L469.673858,310.392874 L484.935247,319.604077 L484.935248,306.612725 L493.524092,301.825552 L493.524091,284.609334 L469.673858,270.166297 L469.673858,270.166297 Z M408.92163,309.908381 L408.92163,331.640635 L457.271691,302.80063 L462.592337,306.130241 L462.592337,278.025807 L408.92163,309.908381 L408.92163,309.908381 Z" id="Inhalt" fill="#DD1166"></path>
            <path d="M732.662946,413.247119 L860.831972,334.720011 L730.803146,259.592592 L855.342783,177.376696 L556.680627,0.0346511315 L427.606354,81.841608 L282.059695,0.0346511315 L0,174.95874 L131.924784,259.592596 L1.5853067,334.720014 L136.540602,416.889263 L136.540602,510.294595 L427.606354,685.745118 L732.662946,510.294595 L732.662946,413.247119 Z M16.359845,174.567195 C16.359845,174.567195 282.6275,10.7223196 282.62751,10.7223142 C282.62752,10.7223088 418.319052,86.4940722 418.319052,86.4940722 L141.126678,253.538825 L16.359845,174.567195 L16.359845,174.567195 Z M721.479193,254.016605 C721.479194,254.016605 838.069588,177.589219 838.069588,177.589219 L557.012131,11.213535 L434.098641,86.0850421 C434.098641,86.0850421 721.479183,254.0166 721.479193,254.016605 Z M20.3698228,336.437263 C20.3698228,336.437263 305.878865,508.792374 305.878875,508.792379 C305.878876,508.79238 419.164832,438.873718 419.164832,438.873718 L140.712881,264.545017 L20.3698228,336.437263 L20.3698228,336.437263 Z M843.002398,334.78605 C843.002398,334.78605 548.306271,510.984568 548.30626,510.984574 C548.30626,510.984574 437.898542,439.84358 437.898542,439.84358 L720.692528,265.550099 L843.002398,334.78605 L843.002398,334.78605 Z M146.775241,422.508087 L146.775241,504.569532 L421.873815,672.12462 L421.873815,447.754231 L305.434983,519.899008 L146.775241,422.508087 L146.775241,422.508087 Z M723.202371,505.653178 L431.847597,673.753894 L431.847597,447.561694 L547.733745,522.045519 L723.202371,417.199756 L723.202371,505.653178 Z M427.738864,434.945484 L711.207228,260.206071 L432.668584,94.3027046 L432.687559,168.369302 L423.475169,174.224886 L423.475169,92.529385 L151.739082,259.483204 L427.738864,434.945484 Z" id="Skeleton" fill="#000000"></path>
        </g>
    </g>
</svg>